<?xml version="1.0" standalone="no"?>
<!DOCTYPE svg PUBLIC "-//W3C//DTD SVG 20010904//EN"
 "http://www.w3.org/TR/2001/REC-SVG-20010904/DTD/svg10.dtd">
<svg version="1.0" xmlns="http://www.w3.org/2000/svg"
 width="640.000000pt" height="640.000000pt" viewBox="0 0 640.000000 640.000000"
 preserveAspectRatio="xMidYMid meet">
<metadata>
Created by potrace 1.14, written by Peter Selinger 2001-2017
</metadata>
<g transform="translate(0.000000,640.000000) scale(0.100000,-0.100000)"
fill="#000000" stroke="none">
<path d="M0 3200 l0 -3200 3200 0 3200 0 -2 3198 -3 3197 -3197 3 -3198 2 0
-3200z m4075 2446 c308 -34 632 -99 726 -146 73 -37 117 -78 145 -136 48 -97
30 -267 -37 -347 -38 -46 -72 -64 -152 -80 l-62 -13 -8 -74 c-16 -152 -139
-1012 -173 -1215 -325 -1926 -922 -2927 -1783 -2994 -522 -40 -895 202 -1008
655 -23 93 -23 334 0 461 64 353 259 679 568 949 264 230 521 401 869 574 148
74 414 190 547 239 35 13 64 30 67 40 14 48 176 1360 176 1424 0 31 -6 32
-225 48 -220 15 -752 7 -928 -15 -370 -47 -583 -119 -718 -244 -133 -123 -177
-321 -114 -513 10 -30 38 -94 62 -143 48 -99 54 -150 28 -214 -31 -73 -132
-154 -234 -187 -71 -23 -189 -17 -246 13 -95 48 -181 188 -233 380 -24 89 -26
113 -26 297 -1 217 10 281 70 432 64 160 188 315 348 434 284 212 769 349
1376 389 208 13 789 5 965 -14z"/>
<path d="M3539 2897 c-63 -29 -173 -86 -245 -126 -568 -322 -860 -677 -903
-1101 -25 -241 40 -391 195 -450 75 -28 172 -24 257 11 158 65 356 290 476
543 114 238 233 618 316 1014 14 64 27 127 30 140 3 12 2 22 -2 22 -5 0 -60
-24 -124 -53z"/>
</g>
</svg>
